<?xml version="1.0" encoding="utf-8"?>
<!-- Generator: Adobe Illustrator 19.2.1, SVG Export Plug-In . SVG Version: 6.00 Build 0)  -->
<svg version="1.1" id="レイヤー_1" xmlns="http://www.w3.org/2000/svg" xmlns:xlink="http://www.w3.org/1999/xlink" x="0px"
	 y="0px" viewBox="0 0 1920 1080" style="enable-background:new 0 0 1920 1080;" xml:space="preserve">
<style type="text/css">
	.st0{fill:#FFFFFF;stroke:#000000;stroke-miterlimit:10;}
	.st1{fill:url(#SVGID_1_);}
	.st2{fill:url(#SVGID_2_);}
	.st3{clip-path:url(#SVGID_4_);fill:url(#SVGID_5_);}
	.st4{clip-path:url(#SVGID_7_);fill:url(#SVGID_8_);}
	.st5{clip-path:url(#SVGID_10_);fill:url(#SVGID_11_);}
	.st6{clip-path:url(#SVGID_13_);fill:url(#SVGID_14_);}
	.st7{display:none;fill:url(#SVGID_15_);}
	.st8{clip-path:url(#SVGID_17_);}
	.st9{fill:url(#SVGID_18_);}
	.st10{fill:url(#SVGID_19_);}
	.st11{fill:url(#SVGID_20_);}
	.st12{fill:url(#SVGID_21_);}
	.st13{fill:url(#SVGID_22_);}
	.st14{fill:url(#SVGID_23_);}
	.st15{fill:url(#SVGID_24_);}
	.st16{fill:url(#SVGID_25_);}
	.st17{fill:url(#SVGID_26_);}
	.st18{fill:url(#SVGID_27_);}
	.st19{fill:url(#SVGID_28_);}
	.st20{fill:url(#SVGID_29_);}
	.st21{fill:url(#SVGID_30_);}
	.st22{fill:url(#SVGID_31_);}
	.st23{fill:url(#SVGID_32_);}
	.st24{fill:url(#SVGID_33_);}
	.st25{fill:url(#SVGID_34_);}
	.st26{fill:url(#SVGID_35_);}
	.st27{fill:url(#SVGID_36_);}
	.st28{fill:url(#SVGID_37_);}
	.st29{fill:url(#SVGID_38_);}
	.st30{fill:url(#SVGID_39_);}
	.st31{fill:url(#SVGID_40_);}
	.st32{fill:url(#SVGID_41_);}
	.st33{fill:url(#SVGID_42_);}
	.st34{fill:url(#SVGID_43_);}
	.st35{fill:url(#SVGID_44_);}
	.st36{fill:url(#SVGID_45_);}
	.st37{fill:url(#SVGID_46_);}
	.st38{fill:url(#SVGID_47_);}
	.st39{display:none;fill:url(#SVGID_48_);}
	.st40{clip-path:url(#SVGID_50_);}
	.st41{fill:url(#SVGID_51_);}
	.st42{fill:url(#SVGID_52_);}
	.st43{fill:url(#SVGID_53_);}
	.st44{fill:url(#SVGID_54_);}
	.st45{fill:url(#SVGID_55_);}
	.st46{fill:url(#SVGID_56_);}
	.st47{fill:url(#SVGID_57_);}
	.st48{fill:url(#SVGID_58_);}
	.st49{fill:url(#SVGID_59_);}
	.st50{fill:url(#SVGID_60_);}
	.st51{fill:url(#SVGID_61_);}
	.st52{fill:url(#SVGID_62_);}
	.st53{fill:url(#SVGID_63_);}
	.st54{fill:url(#SVGID_64_);}
	.st55{fill:url(#SVGID_65_);}
	.st56{fill:url(#SVGID_66_);}
	.st57{fill:url(#SVGID_67_);}
	.st58{fill:url(#SVGID_68_);}
	.st59{fill:url(#SVGID_69_);}
	.st60{fill:url(#SVGID_70_);}
	.st61{fill:url(#SVGID_71_);}
	.st62{fill:url(#SVGID_72_);}
	.st63{fill:url(#SVGID_73_);}
	.st64{fill:url(#SVGID_74_);}
	.st65{fill:url(#SVGID_75_);}
	.st66{fill:url(#SVGID_76_);}
	.st67{fill:url(#SVGID_77_);}
	.st68{fill:url(#SVGID_78_);}
	.st69{fill:url(#SVGID_79_);}
	.st70{fill:url(#SVGID_80_);}
	.st71{fill:url(#SVGID_81_);}
	.st72{fill:url(#SVGID_82_);}
	.st73{fill:url(#SVGID_83_);}
	.st74{fill:url(#SVGID_84_);}
	.st75{fill:url(#SVGID_85_);}
	.st76{fill:url(#SVGID_86_);}
	.st77{fill:url(#SVGID_87_);}
	.st78{fill:url(#SVGID_88_);}
	.st79{fill:url(#SVGID_89_);}
	.st80{fill:url(#SVGID_90_);}
	.st81{fill:url(#SVGID_91_);}
	.st82{fill:url(#SVGID_92_);}
	.st83{fill:url(#SVGID_93_);}
	.st84{fill:url(#SVGID_94_);}
	.st85{fill:url(#SVGID_95_);}
	.st86{fill:url(#SVGID_96_);}
</style>
<g id="レイヤー_1_1_">
	<rect class="st0" width="1920" height="1080"/>
</g>
<linearGradient id="SVGID_1_" gradientUnits="userSpaceOnUse" x1="957.15" y1="1851.6266" x2="957.15" y2="-254.246" gradientTransform="matrix(1 0 0 -1 0 1080)">
	<stop  offset="0" style="stop-color:#474747"/>
	<stop  offset="1" style="stop-color:#000000"/>
</linearGradient>
<rect x="-18" y="-656.7" class="st1" width="1950.3" height="1950.3"/>
<radialGradient id="SVGID_2_" cx="1087.5995" cy="898.5916" r="753.6497" gradientTransform="matrix(1.2854 0 0 -0.6179 -440.9003 873.6397)" gradientUnits="userSpaceOnUse">
	<stop  offset="0" style="stop-color:#363636"/>
	<stop  offset="1" style="stop-color:#363636;stop-opacity:0"/>
</radialGradient>
<ellipse class="st2" cx="957.1" cy="318.4" rx="968.7" ry="465.7"/>
<g>
	<g>
		<defs>
			<rect id="SVGID_3_" x="-18" y="-270.9" width="1950.3" height="1269.2"/>
		</defs>
		<clipPath id="SVGID_4_">
			<use xlink:href="#SVGID_3_"  style="overflow:visible;"/>
		</clipPath>
		
			<linearGradient id="SVGID_5_" gradientUnits="userSpaceOnUse" x1="400.0139" y1="607.5989" x2="53.1121" y2="89.3359" gradientTransform="matrix(1 0 0 -1 0 1080)">
			<stop  offset="0" style="stop-color:#111111"/>
			<stop  offset="1" style="stop-color:#686868;stop-opacity:0"/>
		</linearGradient>
		<path class="st3" d="M781,737.2c-9-29.2-8.6-60.4-13.9-90.5c-5.3-30.1-18-61.5-44.4-76.9c-44.4-25.9-103.8,4.8-151.5-14.6
			c-41.4-16.8-60.8-65.6-99.1-88.4c-24.7-14.7-55.3-17.3-79.2-33.2c-15.3-10.1-26.9-25-37-40.4C298,305.4,273.7,189.6,186.3,131
			C108.1,78.7-4.3,93.1-74.9,155.1s-100.3,163.2-86.6,256.2c13.7,93,66.8,177.3,136.2,240.6c81.4,74.2,183.5,121.3,285.2,163.7
			c73.5,30.7,148.7,59.8,227.6,70.3c42.5,5.6,85.5,5.8,128.4,5.9c66.7,0.2,133.4,0.4,200,0.7c7.2-23.6,32.7-71.4,18.9-93.1
			c-5.6-8.8-24.9-14.6-33-23.6C792.5,765.3,784.4,750.9,781,737.2z"/>
	</g>
	<g>
		<defs>
			<rect id="SVGID_6_" x="-18" y="-270.9" width="1950.3" height="1269.2"/>
		</defs>
		<clipPath id="SVGID_7_">
			<use xlink:href="#SVGID_6_"  style="overflow:visible;"/>
		</clipPath>
		
			<linearGradient id="SVGID_8_" gradientUnits="userSpaceOnUse" x1="1496.1306" y1="568.526" x2="1650.7504" y2="211.2289" gradientTransform="matrix(1 0 0 -1 0 1080)">
			<stop  offset="0" style="stop-color:#111111"/>
			<stop  offset="1" style="stop-color:#686868;stop-opacity:0"/>
		</linearGradient>
		<path class="st4" d="M1989.2,307.9c-39.8-0.1-79.5,14-110.3,39.3c-31.5,25.9-56,64.3-95.6,74.1c-45.1,11.2-88.5-19.1-131.7-36.2
			c-67.6-26.9-146.1-21.5-212,9.2c-66,30.7-119.5,85.2-154.3,149c-11.7,21.4-21.6,44.1-32.8,65.9c-19.5,37.9-61.2,59-103.2,51.7
			c-11.1-1.9-22.3-2.9-33.8-1.7c-53,5.9-95.5,60.2-88.6,113c1.6,12.4,5.7,24.7,13.7,34.3c12.1,14.4,31.2,20.6,49.4,25.6
			c185.7,51,385.5,44.6,570.6-8.7c46.6-13.4,92.6-29.8,134.7-53.8c126-71.9,207.8-211,221.4-355.4
			C2019.8,381.6,2011.2,332.2,1989.2,307.9z"/>
	</g>
	<g>
		<defs>
			<rect id="SVGID_9_" x="-18" y="-270.9" width="1950.3" height="1269.2"/>
		</defs>
		<clipPath id="SVGID_10_">
			<use xlink:href="#SVGID_9_"  style="overflow:visible;"/>
		</clipPath>
		
			<linearGradient id="SVGID_11_" gradientUnits="userSpaceOnUse" x1="1522.4011" y1="466.828" x2="1543.2988" y2="207.6965" gradientTransform="matrix(1 0 0 -1 0 1080)">
			<stop  offset="0" style="stop-color:#000000"/>
			<stop  offset="1" style="stop-color:#000000"/>
		</linearGradient>
		<path class="st5" d="M2060.7,518.2c-48.2-43.9-113.8-68.1-178.9-66s-129.1,30.4-174.4,77.3c-31.5,32.6-73,64.1-104.1,97
			c-13.7,14.5-28,29.5-46.5,37.1c-59.1,24.5-128.3-35.6-187.8-11.9c-39.1,15.6-59.9,62.9-100.4,74.2c-35.8,10-71.6-11.9-106.6-24.6
			C1100.5,679,1021.8,690,984.7,744c-41.1,59.9-13.6,146.5,39.7,195.9c66.6,61.9,161.4,81,251.2,94.8
			c120,18.4,241.6,31.9,362.7,23.2c121.1-8.8,242.4-40.8,343.9-107.5c51.3-33.7,98.9-79,116.1-137.9c10.7-36.6,8.8-75.6,4.6-113.5
			C2096.9,645.2,2075.3,570.3,2060.7,518.2z"/>
	</g>
	<g>
		<defs>
			<rect id="SVGID_12_" x="-18" y="-270.9" width="1950.3" height="1269.2"/>
		</defs>
		<clipPath id="SVGID_13_">
			<use xlink:href="#SVGID_12_"  style="overflow:visible;"/>
		</clipPath>
		
			<linearGradient id="SVGID_14_" gradientUnits="userSpaceOnUse" x1="380.5238" y1="559.785" x2="280.215" y2="116.7538" gradientTransform="matrix(1 0 0 -1 0 1080)">
			<stop  offset="0" style="stop-color:#000000"/>
			<stop  offset="1" style="stop-color:#000000"/>
		</linearGradient>
		<path class="st6" d="M708.4,693.2c-26.1-20.5-59.9-35.8-92-27.6c-21.4,5.4-39.4,20.5-61,25.2c-42,9.1-82.3-24.5-102.3-62.5
			s-27.2-81.7-47.3-119.8c-23.6-44.9-65.8-80.3-114.8-93.3s-104.4-2.2-143.4,30.3C130.1,460,115.7,478.6,96,490
			c-34.4,19.8-80.1,12.7-111.7-11.3s-50.2-62-57.8-101c-76.6,84.7-111.9,205.1-93.2,317.7c4.9,29.4,13.5,59,31.2,83
			c15.4,21,36.8,36.7,58.8,50.6C24,892.7,141.5,924.1,258.6,946c83.2,15.6,168.3,26.9,252.3,16.9c104.8-12.5,203.7-57.1,295.8-106.7
			c31.5-17,65.2-45.4,25.2-73c-21.4-14.7-46.3-21.3-67.2-38.8C745.3,728.1,728.4,708.9,708.4,693.2z"/>
	</g>
</g>
<g>
	
		<linearGradient id="SVGID_15_" gradientUnits="userSpaceOnUse" x1="957.15" y1="310.9187" x2="957.15" y2="-239.1185" gradientTransform="matrix(1 0 0 -1 0 1080)">
		<stop  offset="0" style="stop-color:#7D7D7D"/>
		<stop  offset="1" style="stop-color:#000000"/>
	</linearGradient>
	<rect x="-18" y="799.1" class="st7" width="1950.3" height="509.4"/>
	<g>
		<g>
			<defs>
				<rect id="SVGID_16_" x="-18" y="770" width="1950.3" height="538.5"/>
			</defs>
			<clipPath id="SVGID_17_">
				<use xlink:href="#SVGID_16_"  style="overflow:visible;"/>
			</clipPath>
			<g class="st8">
				<g>
					<g>
						
							<linearGradient id="SVGID_18_" gradientUnits="userSpaceOnUse" x1="957.1" y1="316.1949" x2="957.1" y2="-380.8824" gradientTransform="matrix(1 0 0 -1 0 1080)">
							<stop  offset="0" style="stop-color:#B7B7B7"/>
							<stop  offset="1" style="stop-color:#626262"/>
						</linearGradient>
						<rect x="-395" y="798.2" class="st9" width="2704.2" height="1.8"/>
					</g>
					<g>
						
							<linearGradient id="SVGID_19_" gradientUnits="userSpaceOnUse" x1="957.1" y1="316.1949" x2="957.1" y2="-380.8824" gradientTransform="matrix(1 0 0 -1 0 1080)">
							<stop  offset="0" style="stop-color:#B7B7B7"/>
							<stop  offset="1" style="stop-color:#626262"/>
						</linearGradient>
						<rect x="-395" y="822.1" class="st10" width="2704.2" height="1.8"/>
					</g>
					<g>
						
							<linearGradient id="SVGID_20_" gradientUnits="userSpaceOnUse" x1="957.1" y1="316.1949" x2="957.1" y2="-380.8824" gradientTransform="matrix(1 0 0 -1 0 1080)">
							<stop  offset="0" style="stop-color:#B7B7B7"/>
							<stop  offset="1" style="stop-color:#626262"/>
						</linearGradient>
						<rect x="-395" y="846" class="st11" width="2704.2" height="1.8"/>
					</g>
					<g>
						
							<linearGradient id="SVGID_21_" gradientUnits="userSpaceOnUse" x1="957.1" y1="316.1949" x2="957.1" y2="-380.8824" gradientTransform="matrix(1 0 0 -1 0 1080)">
							<stop  offset="0" style="stop-color:#B7B7B7"/>
							<stop  offset="1" style="stop-color:#626262"/>
						</linearGradient>
						<rect x="-395" y="869.9" class="st12" width="2704.2" height="1.8"/>
					</g>
					<g>
						
							<linearGradient id="SVGID_22_" gradientUnits="userSpaceOnUse" x1="957.1" y1="316.1949" x2="957.1" y2="-380.8824" gradientTransform="matrix(1 0 0 -1 0 1080)">
							<stop  offset="0" style="stop-color:#B7B7B7"/>
							<stop  offset="1" style="stop-color:#626262"/>
						</linearGradient>
						<rect x="-395" y="893.8" class="st13" width="2704.2" height="1.8"/>
					</g>
					<g>
						
							<linearGradient id="SVGID_23_" gradientUnits="userSpaceOnUse" x1="957.1" y1="316.1949" x2="957.1" y2="-380.8824" gradientTransform="matrix(1 0 0 -1 0 1080)">
							<stop  offset="0" style="stop-color:#B7B7B7"/>
							<stop  offset="1" style="stop-color:#626262"/>
						</linearGradient>
						<rect x="-395" y="917.7" class="st14" width="2704.2" height="1.8"/>
					</g>
					<g>
						
							<linearGradient id="SVGID_24_" gradientUnits="userSpaceOnUse" x1="957.1" y1="316.1949" x2="957.1" y2="-380.8824" gradientTransform="matrix(1 0 0 -1 0 1080)">
							<stop  offset="0" style="stop-color:#B7B7B7"/>
							<stop  offset="1" style="stop-color:#626262"/>
						</linearGradient>
						<rect x="-395" y="941.6" class="st15" width="2704.2" height="1.8"/>
					</g>
					<g>
						
							<linearGradient id="SVGID_25_" gradientUnits="userSpaceOnUse" x1="957.1" y1="316.1949" x2="957.1" y2="-380.8824" gradientTransform="matrix(1 0 0 -1 0 1080)">
							<stop  offset="0" style="stop-color:#B7B7B7"/>
							<stop  offset="1" style="stop-color:#626262"/>
						</linearGradient>
						<rect x="-395" y="965.5" class="st16" width="2704.2" height="1.8"/>
					</g>
					<g>
						
							<linearGradient id="SVGID_26_" gradientUnits="userSpaceOnUse" x1="957.1" y1="316.1949" x2="957.1" y2="-380.8824" gradientTransform="matrix(1 0 0 -1 0 1080)">
							<stop  offset="0" style="stop-color:#B7B7B7"/>
							<stop  offset="1" style="stop-color:#626262"/>
						</linearGradient>
						<rect x="-395" y="989.4" class="st17" width="2704.2" height="1.8"/>
					</g>
					<g>
						
							<linearGradient id="SVGID_27_" gradientUnits="userSpaceOnUse" x1="957.1" y1="316.1949" x2="957.1" y2="-380.8824" gradientTransform="matrix(1 0 0 -1 0 1080)">
							<stop  offset="0" style="stop-color:#B7B7B7"/>
							<stop  offset="1" style="stop-color:#626262"/>
						</linearGradient>
						<rect x="-395" y="1013.3" class="st18" width="2704.2" height="1.8"/>
					</g>
					<g>
						
							<linearGradient id="SVGID_28_" gradientUnits="userSpaceOnUse" x1="957.1" y1="316.1949" x2="957.1" y2="-380.8823" gradientTransform="matrix(1 0 0 -1 0 1080)">
							<stop  offset="0" style="stop-color:#B7B7B7"/>
							<stop  offset="1" style="stop-color:#626262"/>
						</linearGradient>
						<rect x="-395" y="1037.2" class="st19" width="2704.2" height="1.8"/>
					</g>
					<g>
						
							<linearGradient id="SVGID_29_" gradientUnits="userSpaceOnUse" x1="957.1" y1="316.1949" x2="957.1" y2="-380.8823" gradientTransform="matrix(1 0 0 -1 0 1080)">
							<stop  offset="0" style="stop-color:#B7B7B7"/>
							<stop  offset="1" style="stop-color:#626262"/>
						</linearGradient>
						<rect x="-395" y="1061.2" class="st20" width="2704.2" height="1.8"/>
					</g>
					<g>
						
							<linearGradient id="SVGID_30_" gradientUnits="userSpaceOnUse" x1="957.1" y1="316.1949" x2="957.1" y2="-380.8823" gradientTransform="matrix(1 0 0 -1 0 1080)">
							<stop  offset="0" style="stop-color:#B7B7B7"/>
							<stop  offset="1" style="stop-color:#626262"/>
						</linearGradient>
						<rect x="-395" y="1085.1" class="st21" width="2704.2" height="1.8"/>
					</g>
					<g>
						
							<linearGradient id="SVGID_31_" gradientUnits="userSpaceOnUse" x1="957.1" y1="316.1949" x2="957.1" y2="-380.8823" gradientTransform="matrix(1 0 0 -1 0 1080)">
							<stop  offset="0" style="stop-color:#B7B7B7"/>
							<stop  offset="1" style="stop-color:#626262"/>
						</linearGradient>
						<rect x="-395" y="1109" class="st22" width="2704.2" height="1.8"/>
					</g>
					<g>
						
							<linearGradient id="SVGID_32_" gradientUnits="userSpaceOnUse" x1="957.1" y1="316.1949" x2="957.1" y2="-380.8823" gradientTransform="matrix(1 0 0 -1 0 1080)">
							<stop  offset="0" style="stop-color:#B7B7B7"/>
							<stop  offset="1" style="stop-color:#626262"/>
						</linearGradient>
						<rect x="-395" y="1132.9" class="st23" width="2704.2" height="1.8"/>
					</g>
					<g>
						
							<linearGradient id="SVGID_33_" gradientUnits="userSpaceOnUse" x1="957.1" y1="316.1949" x2="957.1" y2="-380.8823" gradientTransform="matrix(1 0 0 -1 0 1080)">
							<stop  offset="0" style="stop-color:#B7B7B7"/>
							<stop  offset="1" style="stop-color:#626262"/>
						</linearGradient>
						<rect x="-395" y="1156.8" class="st24" width="2704.2" height="1.8"/>
					</g>
					<g>
						
							<linearGradient id="SVGID_34_" gradientUnits="userSpaceOnUse" x1="957.1" y1="316.1949" x2="957.1" y2="-380.8823" gradientTransform="matrix(1 0 0 -1 0 1080)">
							<stop  offset="0" style="stop-color:#B7B7B7"/>
							<stop  offset="1" style="stop-color:#626262"/>
						</linearGradient>
						<rect x="-395" y="1189.3" class="st25" width="2704.2" height="1.8"/>
					</g>
					<g>
						
							<linearGradient id="SVGID_35_" gradientUnits="userSpaceOnUse" x1="957.1" y1="316.1949" x2="957.1" y2="-380.8823" gradientTransform="matrix(1 0 0 -1 0 1080)">
							<stop  offset="0" style="stop-color:#B7B7B7"/>
							<stop  offset="1" style="stop-color:#626262"/>
						</linearGradient>
						<rect x="-395" y="1228.5" class="st26" width="2704.2" height="1.8"/>
					</g>
					<g>
						
							<linearGradient id="SVGID_36_" gradientUnits="userSpaceOnUse" x1="957.1" y1="316.1949" x2="957.1" y2="-380.8823" gradientTransform="matrix(1 0 0 -1 0 1080)">
							<stop  offset="0" style="stop-color:#B7B7B7"/>
							<stop  offset="1" style="stop-color:#626262"/>
						</linearGradient>
						<rect x="-395" y="1276.3" class="st27" width="2704.2" height="1.8"/>
					</g>
					<g>
						
							<linearGradient id="SVGID_37_" gradientUnits="userSpaceOnUse" x1="957.1" y1="316.1949" x2="957.1" y2="-380.8823" gradientTransform="matrix(1 0 0 -1 0 1080)">
							<stop  offset="0" style="stop-color:#B7B7B7"/>
							<stop  offset="1" style="stop-color:#626262"/>
						</linearGradient>
						<rect x="955.7" y="799.1" class="st28" width="2.8" height="536.8"/>
					</g>
					<g>
						<g>
							
								<linearGradient id="SVGID_38_" gradientUnits="userSpaceOnUse" x1="1205.0499" y1="316.1949" x2="1205.05" y2="-380.8823" gradientTransform="matrix(1 0 0 -1 0 1080)">
								<stop  offset="0" style="stop-color:#B7B7B7"/>
								<stop  offset="1" style="stop-color:#626262"/>
							</linearGradient>
							<polygon class="st29" points="1316.5,1352 1090.9,799.3 1093.6,798.9 1319.2,1351.5 							"/>
						</g>
						<g>
							
								<linearGradient id="SVGID_39_" gradientUnits="userSpaceOnUse" x1="1510.6" y1="316.1949" x2="1510.6001" y2="-380.8823" gradientTransform="matrix(1 0 0 -1 0 1080)">
								<stop  offset="0" style="stop-color:#B7B7B7"/>
								<stop  offset="1" style="stop-color:#626262"/>
							</linearGradient>
							<polygon class="st30" points="1776.9,1352.2 1241.9,799.6 1244.3,798.6 1779.3,1351.3 							"/>
						</g>
						<g>
							
								<linearGradient id="SVGID_40_" gradientUnits="userSpaceOnUse" x1="1711.4" y1="316.1949" x2="1711.4" y2="-380.8823" gradientTransform="matrix(1 0 0 -1 0 1080)">
								<stop  offset="0" style="stop-color:#B7B7B7"/>
								<stop  offset="1" style="stop-color:#626262"/>
							</linearGradient>
							<polygon class="st31" points="2027.4,1177 1393.5,799.7 1395.4,798.4 2029.3,1175.7 							"/>
						</g>
						<g>
							
								<linearGradient id="SVGID_41_" gradientUnits="userSpaceOnUse" x1="1795.7" y1="316.1949" x2="1795.7001" y2="-380.8823" gradientTransform="matrix(1 0 0 -1 0 1080)">
								<stop  offset="0" style="stop-color:#B7B7B7"/>
								<stop  offset="1" style="stop-color:#626262"/>
							</linearGradient>
							<polygon class="st32" points="2027.6,969 1562.4,799.9 1563.8,798.3 2029,967.5 							"/>
						</g>
						<g>
							
								<linearGradient id="SVGID_42_" gradientUnits="userSpaceOnUse" x1="1895.85" y1="316.1949" x2="1895.85" y2="-380.8823" gradientTransform="matrix(1 0 0 -1 0 1080)">
								<stop  offset="0" style="stop-color:#B7B7B7"/>
								<stop  offset="1" style="stop-color:#626262"/>
							</linearGradient>
							<polygon class="st33" points="2065.9,847.8 1725.2,800 1725.8,798.2 2066.5,846 							"/>
						</g>
					</g>
					<g>
						<g>
							
								<linearGradient id="SVGID_43_" gradientUnits="userSpaceOnUse" x1="709.1" y1="316.1949" x2="709.1" y2="-380.8823" gradientTransform="matrix(1 0 0 -1 0 1080)">
								<stop  offset="0" style="stop-color:#B7B7B7"/>
								<stop  offset="1" style="stop-color:#626262"/>
							</linearGradient>
							<polygon class="st34" points="597.6,1352 594.9,1351.5 820.6,798.9 823.3,799.3 							"/>
						</g>
						<g>
							
								<linearGradient id="SVGID_44_" gradientUnits="userSpaceOnUse" x1="403.6" y1="316.1949" x2="403.6" y2="-380.8823" gradientTransform="matrix(1 0 0 -1 0 1080)">
								<stop  offset="0" style="stop-color:#B7B7B7"/>
								<stop  offset="1" style="stop-color:#626262"/>
							</linearGradient>
							<polygon class="st35" points="137.2,1352.2 134.9,1351.3 669.9,798.6 672.3,799.6 							"/>
						</g>
						<g>
							
								<linearGradient id="SVGID_45_" gradientUnits="userSpaceOnUse" x1="202.8" y1="316.1949" x2="202.8" y2="-380.8823" gradientTransform="matrix(1 0 0 -1 0 1080)">
								<stop  offset="0" style="stop-color:#B7B7B7"/>
								<stop  offset="1" style="stop-color:#626262"/>
							</linearGradient>
							<polygon class="st36" points="-113.2,1177 -115.1,1175.7 518.8,798.4 520.7,799.7 							"/>
						</g>
						<g>
							
								<linearGradient id="SVGID_46_" gradientUnits="userSpaceOnUse" x1="118.4" y1="316.1949" x2="118.4" y2="-380.8823" gradientTransform="matrix(1 0 0 -1 0 1080)">
								<stop  offset="0" style="stop-color:#B7B7B7"/>
								<stop  offset="1" style="stop-color:#626262"/>
							</linearGradient>
							<polygon class="st37" points="-113.5,969 -114.9,967.5 350.3,798.3 351.7,799.9 							"/>
						</g>
						<g>
							
								<linearGradient id="SVGID_47_" gradientUnits="userSpaceOnUse" x1="18.3" y1="316.1949" x2="18.3" y2="-380.8823" gradientTransform="matrix(1 0 0 -1 0 1080)">
								<stop  offset="0" style="stop-color:#B7B7B7"/>
								<stop  offset="1" style="stop-color:#626262"/>
							</linearGradient>
							<polygon class="st38" points="-151.8,847.8 -152.4,846 188.4,798.2 189,800 							"/>
						</g>
					</g>
				</g>
			</g>
		</g>
	</g>
</g>
<g>
	
		<linearGradient id="SVGID_48_" gradientUnits="userSpaceOnUse" x1="2132.8999" y1="1186.3726" x2="2132.9001" y2="636.3354" gradientTransform="matrix(-1 0 0 1 3090 -846)">
		<stop  offset="0" style="stop-color:#7D7D7D"/>
		<stop  offset="1" style="stop-color:#000000"/>
	</linearGradient>
	<polygon class="st39" points="1932.2,310.4 -18,310.4 -18,-199 1932.2,-199 	"/>
	<g>
		<g>
			<defs>
				<rect id="SVGID_49_" x="-18.1" y="-199" width="1950.3" height="538.5"/>
			</defs>
			<clipPath id="SVGID_50_">
				<use xlink:href="#SVGID_49_"  style="overflow:visible;"/>
			</clipPath>
			<g class="st40">
				<g>
					<g>
						
							<linearGradient id="SVGID_51_" gradientUnits="userSpaceOnUse" x1="2132.8999" y1="1191.6488" x2="2132.9001" y2="494.5715" gradientTransform="matrix(-1 0 0 1 3090 -846)">
							<stop  offset="0" style="stop-color:#7A7A7A"/>
							<stop  offset="1" style="stop-color:#252525"/>
						</linearGradient>
						<rect x="-395" y="309.5" class="st41" width="2704.2" height="1.8"/>
					</g>
					<g>
						
							<linearGradient id="SVGID_52_" gradientUnits="userSpaceOnUse" x1="2132.8999" y1="1191.6488" x2="2132.9001" y2="494.5715" gradientTransform="matrix(-1 0 0 1 3090 -846)">
							<stop  offset="0" style="stop-color:#7A7A7A"/>
							<stop  offset="1" style="stop-color:#252525"/>
						</linearGradient>
						<rect x="-395" y="285.6" class="st42" width="2704.2" height="1.8"/>
					</g>
					<g>
						
							<linearGradient id="SVGID_53_" gradientUnits="userSpaceOnUse" x1="2132.8999" y1="1191.6488" x2="2132.9001" y2="494.5715" gradientTransform="matrix(-1 0 0 1 3090 -846)">
							<stop  offset="0" style="stop-color:#7A7A7A"/>
							<stop  offset="1" style="stop-color:#252525"/>
						</linearGradient>
						<rect x="-395" y="261.7" class="st43" width="2704.2" height="1.8"/>
					</g>
					<g>
						
							<linearGradient id="SVGID_54_" gradientUnits="userSpaceOnUse" x1="2132.8999" y1="1191.6488" x2="2132.9001" y2="494.5715" gradientTransform="matrix(-1 0 0 1 3090 -846)">
							<stop  offset="0" style="stop-color:#7A7A7A"/>
							<stop  offset="1" style="stop-color:#252525"/>
						</linearGradient>
						<rect x="-395" y="237.8" class="st44" width="2704.2" height="1.8"/>
					</g>
					<g>
						
							<linearGradient id="SVGID_55_" gradientUnits="userSpaceOnUse" x1="2132.8999" y1="1191.6488" x2="2132.9001" y2="494.5715" gradientTransform="matrix(-1 0 0 1 3090 -846)">
							<stop  offset="0" style="stop-color:#7A7A7A"/>
							<stop  offset="1" style="stop-color:#252525"/>
						</linearGradient>
						<rect x="-395" y="213.9" class="st45" width="2704.2" height="1.8"/>
					</g>
					<g>
						
							<linearGradient id="SVGID_56_" gradientUnits="userSpaceOnUse" x1="2132.8999" y1="1191.6488" x2="2132.9001" y2="494.5715" gradientTransform="matrix(-1 0 0 1 3090 -846)">
							<stop  offset="0" style="stop-color:#7A7A7A"/>
							<stop  offset="1" style="stop-color:#252525"/>
						</linearGradient>
						<rect x="-395" y="190" class="st46" width="2704.2" height="1.8"/>
					</g>
					<g>
						
							<linearGradient id="SVGID_57_" gradientUnits="userSpaceOnUse" x1="2132.8999" y1="1191.6488" x2="2132.9001" y2="494.5715" gradientTransform="matrix(-1 0 0 1 3090 -846)">
							<stop  offset="0" style="stop-color:#7A7A7A"/>
							<stop  offset="1" style="stop-color:#252525"/>
						</linearGradient>
						<rect x="-395" y="166.1" class="st47" width="2704.2" height="1.8"/>
					</g>
					<g>
						
							<linearGradient id="SVGID_58_" gradientUnits="userSpaceOnUse" x1="2132.8999" y1="1191.6488" x2="2132.9001" y2="494.5715" gradientTransform="matrix(-1 0 0 1 3090 -846)">
							<stop  offset="0" style="stop-color:#7A7A7A"/>
							<stop  offset="1" style="stop-color:#252525"/>
						</linearGradient>
						<rect x="-395" y="142.2" class="st48" width="2704.2" height="1.8"/>
					</g>
					<g>
						
							<linearGradient id="SVGID_59_" gradientUnits="userSpaceOnUse" x1="2132.8999" y1="1191.6488" x2="2132.9001" y2="494.5715" gradientTransform="matrix(-1 0 0 1 3090 -846)">
							<stop  offset="0" style="stop-color:#7A7A7A"/>
							<stop  offset="1" style="stop-color:#252525"/>
						</linearGradient>
						<rect x="-395" y="118.2" class="st49" width="2704.2" height="1.8"/>
					</g>
					<g>
						
							<linearGradient id="SVGID_60_" gradientUnits="userSpaceOnUse" x1="2132.8999" y1="1191.6488" x2="2132.9001" y2="494.5715" gradientTransform="matrix(-1 0 0 1 3090 -846)">
							<stop  offset="0" style="stop-color:#7A7A7A"/>
							<stop  offset="1" style="stop-color:#252525"/>
						</linearGradient>
						<rect x="-395" y="94.3" class="st50" width="2704.2" height="1.8"/>
					</g>
					<g>
						
							<linearGradient id="SVGID_61_" gradientUnits="userSpaceOnUse" x1="2132.8999" y1="1191.6488" x2="2132.9001" y2="494.5715" gradientTransform="matrix(-1 0 0 1 3090 -846)">
							<stop  offset="0" style="stop-color:#7A7A7A"/>
							<stop  offset="1" style="stop-color:#252525"/>
						</linearGradient>
						<rect x="-395" y="70.4" class="st51" width="2704.2" height="1.8"/>
					</g>
					<g>
						
							<linearGradient id="SVGID_62_" gradientUnits="userSpaceOnUse" x1="2132.8999" y1="1191.6488" x2="2132.9001" y2="494.5715" gradientTransform="matrix(-1 0 0 1 3090 -846)">
							<stop  offset="0" style="stop-color:#7A7A7A"/>
							<stop  offset="1" style="stop-color:#252525"/>
						</linearGradient>
						<rect x="-395" y="46.5" class="st52" width="2704.2" height="1.8"/>
					</g>
					<g>
						
							<linearGradient id="SVGID_63_" gradientUnits="userSpaceOnUse" x1="2132.8999" y1="1191.6488" x2="2132.9001" y2="494.5715" gradientTransform="matrix(-1 0 0 1 3090 -846)">
							<stop  offset="0" style="stop-color:#7A7A7A"/>
							<stop  offset="1" style="stop-color:#252525"/>
						</linearGradient>
						<rect x="-395" y="22.6" class="st53" width="2704.2" height="1.8"/>
					</g>
					<g>
						
							<linearGradient id="SVGID_64_" gradientUnits="userSpaceOnUse" x1="2132.8999" y1="1191.6488" x2="2132.9001" y2="494.5715" gradientTransform="matrix(-1 0 0 1 3090 -846)">
							<stop  offset="0" style="stop-color:#7A7A7A"/>
							<stop  offset="1" style="stop-color:#252525"/>
						</linearGradient>
						<rect x="-395" y="-1.3" class="st54" width="2704.2" height="1.8"/>
					</g>
					<g>
						
							<linearGradient id="SVGID_65_" gradientUnits="userSpaceOnUse" x1="2132.8999" y1="1191.6488" x2="2132.9001" y2="494.5715" gradientTransform="matrix(-1 0 0 1 3090 -846)">
							<stop  offset="0" style="stop-color:#7A7A7A"/>
							<stop  offset="1" style="stop-color:#252525"/>
						</linearGradient>
						<rect x="-395" y="-25.2" class="st55" width="2704.2" height="1.8"/>
					</g>
					<g>
						
							<linearGradient id="SVGID_66_" gradientUnits="userSpaceOnUse" x1="2132.8999" y1="1191.6488" x2="2132.9001" y2="494.5715" gradientTransform="matrix(-1 0 0 1 3090 -846)">
							<stop  offset="0" style="stop-color:#7A7A7A"/>
							<stop  offset="1" style="stop-color:#252525"/>
						</linearGradient>
						<rect x="-395" y="-49.1" class="st56" width="2704.2" height="1.8"/>
					</g>
					<g>
						
							<linearGradient id="SVGID_67_" gradientUnits="userSpaceOnUse" x1="2132.8999" y1="1191.6488" x2="2132.9001" y2="494.5715" gradientTransform="matrix(-1 0 0 1 3090 -846)">
							<stop  offset="0" style="stop-color:#7A7A7A"/>
							<stop  offset="1" style="stop-color:#252525"/>
						</linearGradient>
						<rect x="-395" y="-81.6" class="st57" width="2704.2" height="1.8"/>
					</g>
					<g>
						
							<linearGradient id="SVGID_68_" gradientUnits="userSpaceOnUse" x1="2132.8999" y1="1191.6488" x2="2132.9001" y2="494.5715" gradientTransform="matrix(-1 0 0 1 3090 -846)">
							<stop  offset="0" style="stop-color:#7A7A7A"/>
							<stop  offset="1" style="stop-color:#252525"/>
						</linearGradient>
						<rect x="-395" y="-120.8" class="st58" width="2704.2" height="1.8"/>
					</g>
					<g>
						
							<linearGradient id="SVGID_69_" gradientUnits="userSpaceOnUse" x1="2132.8999" y1="1191.6488" x2="2132.9001" y2="494.5715" gradientTransform="matrix(-1 0 0 1 3090 -846)">
							<stop  offset="0" style="stop-color:#7A7A7A"/>
							<stop  offset="1" style="stop-color:#252525"/>
						</linearGradient>
						<rect x="-395" y="-168.6" class="st59" width="2704.2" height="1.8"/>
					</g>
					<g>
						
							<linearGradient id="SVGID_70_" gradientUnits="userSpaceOnUse" x1="2132.8999" y1="1191.6488" x2="2132.8999" y2="494.5715" gradientTransform="matrix(-1 0 0 1 3090 -846)">
							<stop  offset="0" style="stop-color:#7A7A7A"/>
							<stop  offset="1" style="stop-color:#252525"/>
						</linearGradient>
						<rect x="955.7" y="-226.4" class="st60" width="2.8" height="536.8"/>
					</g>
					<g>
						<g>
							
								<linearGradient id="SVGID_71_" gradientUnits="userSpaceOnUse" x1="2380.8999" y1="1191.6488" x2="2380.8999" y2="494.5715" gradientTransform="matrix(-1 0 0 1 3090 -846)">
								<stop  offset="0" style="stop-color:#7A7A7A"/>
								<stop  offset="1" style="stop-color:#252525"/>
							</linearGradient>
							<polygon class="st61" points="597.6,-242.5 823.3,310.1 820.6,310.6 594.9,-242.1 							"/>
						</g>
						<g>
							
								<linearGradient id="SVGID_72_" gradientUnits="userSpaceOnUse" x1="2686.3999" y1="1191.6488" x2="2686.3999" y2="494.5715" gradientTransform="matrix(-1 0 0 1 3090 -846)">
								<stop  offset="0" style="stop-color:#7A7A7A"/>
								<stop  offset="1" style="stop-color:#252525"/>
							</linearGradient>
							<polygon class="st62" points="137.2,-242.7 672.3,309.9 669.9,310.8 134.9,-241.8 							"/>
						</g>
						<g>
							
								<linearGradient id="SVGID_73_" gradientUnits="userSpaceOnUse" x1="2887.2" y1="1191.6488" x2="2887.2" y2="494.5715" gradientTransform="matrix(-1 0 0 1 3090 -846)">
								<stop  offset="0" style="stop-color:#7A7A7A"/>
								<stop  offset="1" style="stop-color:#252525"/>
							</linearGradient>
							<polygon class="st63" points="-113.2,-67.5 520.7,309.7 518.8,311 -115.1,-66.3 							"/>
						</g>
						<g>
							
								<linearGradient id="SVGID_74_" gradientUnits="userSpaceOnUse" x1="2971.6001" y1="1191.6488" x2="2971.6001" y2="494.5715" gradientTransform="matrix(-1 0 0 1 3090 -846)">
								<stop  offset="0" style="stop-color:#7A7A7A"/>
								<stop  offset="1" style="stop-color:#252525"/>
							</linearGradient>
							<polygon class="st64" points="-113.5,140.4 351.7,309.6 350.3,311.1 -114.9,142 							"/>
						</g>
						<g>
							
								<linearGradient id="SVGID_75_" gradientUnits="userSpaceOnUse" x1="3071.7" y1="1191.6488" x2="3071.7" y2="494.5715" gradientTransform="matrix(-1 0 0 1 3090 -846)">
								<stop  offset="0" style="stop-color:#7A7A7A"/>
								<stop  offset="1" style="stop-color:#252525"/>
							</linearGradient>
							<polygon class="st65" points="-151.8,261.7 189,309.5 188.4,311.2 -152.4,263.4 							"/>
						</g>
					</g>
					<g>
						<g>
							
								<linearGradient id="SVGID_76_" gradientUnits="userSpaceOnUse" x1="1884.95" y1="1191.6488" x2="1884.9501" y2="494.5715" gradientTransform="matrix(-1 0 0 1 3090 -846)">
								<stop  offset="0" style="stop-color:#7A7A7A"/>
								<stop  offset="1" style="stop-color:#252525"/>
							</linearGradient>
							<polygon class="st66" points="1316.5,-242.5 1319.2,-242.1 1093.6,310.6 1090.9,310.1 							"/>
						</g>
						<g>
							
								<linearGradient id="SVGID_77_" gradientUnits="userSpaceOnUse" x1="1579.3999" y1="1191.6488" x2="1579.4" y2="494.5715" gradientTransform="matrix(-1 0 0 1 3090 -846)">
								<stop  offset="0" style="stop-color:#7A7A7A"/>
								<stop  offset="1" style="stop-color:#252525"/>
							</linearGradient>
							<polygon class="st67" points="1776.9,-242.7 1779.3,-241.8 1244.3,310.8 1241.9,309.9 							"/>
						</g>
						<g>
							
								<linearGradient id="SVGID_78_" gradientUnits="userSpaceOnUse" x1="1378.6" y1="1191.6488" x2="1378.6" y2="494.5715" gradientTransform="matrix(-1 0 0 1 3090 -846)">
								<stop  offset="0" style="stop-color:#7A7A7A"/>
								<stop  offset="1" style="stop-color:#252525"/>
							</linearGradient>
							<polygon class="st68" points="2027.4,-67.5 2029.3,-66.3 1395.4,311 1393.5,309.7 							"/>
						</g>
						<g>
							
								<linearGradient id="SVGID_79_" gradientUnits="userSpaceOnUse" x1="1294.2999" y1="1191.6488" x2="1294.3" y2="494.5715" gradientTransform="matrix(-1 0 0 1 3090 -846)">
								<stop  offset="0" style="stop-color:#7A7A7A"/>
								<stop  offset="1" style="stop-color:#252525"/>
							</linearGradient>
							<polygon class="st69" points="2027.6,140.4 2029,142 1563.8,311.1 1562.4,309.6 							"/>
						</g>
						<g>
							
								<linearGradient id="SVGID_80_" gradientUnits="userSpaceOnUse" x1="1194.15" y1="1191.6488" x2="1194.15" y2="494.5715" gradientTransform="matrix(-1 0 0 1 3090 -846)">
								<stop  offset="0" style="stop-color:#7A7A7A"/>
								<stop  offset="1" style="stop-color:#252525"/>
							</linearGradient>
							<polygon class="st70" points="2065.9,261.7 2066.5,263.4 1725.8,311.2 1725.2,309.5 							"/>
						</g>
					</g>
				</g>
			</g>
		</g>
	</g>
</g>
<g>
	
		<radialGradient id="SVGID_81_" cx="1036.4766" cy="13051.8115" r="843.3209" gradientTransform="matrix(1.156 0 0 -4.293529e-02 -241.0669 1359.4833)" gradientUnits="userSpaceOnUse">
		<stop  offset="0" style="stop-color:#C2C2C2"/>
		<stop  offset="1" style="stop-color:#3F3F3F;stop-opacity:0"/>
	</radialGradient>
	<ellipse class="st71" cx="957.1" cy="799.1" rx="975.1" ry="36.2"/>
	
		<radialGradient id="SVGID_82_" cx="1036.4766" cy="12499.8174" r="843.3209" gradientTransform="matrix(1.156 0 0 -4.293529e-02 -241.0669 1359.4833)" gradientUnits="userSpaceOnUse">
		<stop  offset="0" style="stop-color:#C2C2C2"/>
		<stop  offset="1" style="stop-color:#3F3F3F;stop-opacity:0"/>
	</radialGradient>
	<ellipse class="st72" cx="957.1" cy="822.8" rx="975.1" ry="36.2"/>
	
		<radialGradient id="SVGID_83_" cx="840.1298" cy="13255.6572" r="843.4772" gradientTransform="matrix(0.834 0 0 -2.228994e-02 256.4317 1142.8678)" gradientUnits="userSpaceOnUse">
		<stop  offset="0" style="stop-color:#C2C2C2"/>
		<stop  offset="1" style="stop-color:#3F3F3F;stop-opacity:0"/>
	</radialGradient>
	<ellipse class="st73" cx="957.1" cy="847.4" rx="703.5" ry="18.8"/>
	
		<radialGradient id="SVGID_84_" cx="913.8461" cy="13139.5664" r="992.5464" gradientTransform="matrix(0.9314 0 0 -1.431505e-02 105.9437 1059.1935)" gradientUnits="userSpaceOnUse">
		<stop  offset="0" style="stop-color:#C2C2C2"/>
		<stop  offset="1" style="stop-color:#3F3F3F;stop-opacity:0"/>
	</radialGradient>
	<ellipse class="st74" cx="957.1" cy="871.1" rx="925" ry="14.2"/>
	
		<radialGradient id="SVGID_85_" cx="647.1965" cy="11483.9658" r="844.3635" gradientTransform="matrix(0.6548 0 0 -1.431505e-02 533.3157 1059.1935)" gradientUnits="userSpaceOnUse">
		<stop  offset="0" style="stop-color:#C2C2C2"/>
		<stop  offset="1" style="stop-color:#3F3F3F;stop-opacity:0"/>
	</radialGradient>
	<ellipse class="st75" cx="957.1" cy="894.8" rx="552.3" ry="12.1"/>
	
		<radialGradient id="SVGID_86_" cx="647.1965" cy="9830.125" r="843.4826" gradientTransform="matrix(0.6548 0 0 -1.431505e-02 533.3157 1059.1935)" gradientUnits="userSpaceOnUse">
		<stop  offset="0" style="stop-color:#C2C2C2"/>
		<stop  offset="1" style="stop-color:#3F3F3F;stop-opacity:0"/>
	</radialGradient>
	<ellipse class="st76" cx="957.1" cy="918.5" rx="552.3" ry="12.1"/>
	
		<radialGradient id="SVGID_87_" cx="647.1965" cy="8143.1235" r="557.3432" gradientTransform="matrix(0.6548 0 0 -1.431505e-02 533.3157 1059.1935)" gradientUnits="userSpaceOnUse">
		<stop  offset="0" style="stop-color:#C2C2C2"/>
		<stop  offset="1" style="stop-color:#3F3F3F;stop-opacity:0"/>
	</radialGradient>
	<ellipse class="st77" cx="957.1" cy="942.6" rx="365" ry="8"/>
	
		<radialGradient id="SVGID_88_" cx="647.1965" cy="6456.3647" r="386.4442" gradientTransform="matrix(0.6548 0 0 -1.431505e-02 533.3157 1059.1935)" gradientUnits="userSpaceOnUse">
		<stop  offset="0" style="stop-color:#C2C2C2"/>
		<stop  offset="1" style="stop-color:#3F3F3F;stop-opacity:0"/>
	</radialGradient>
	<ellipse class="st78" cx="957.1" cy="966.8" rx="253.1" ry="5.5"/>
</g>
<g>
	
		<radialGradient id="SVGID_89_" cx="1036.4766" cy="15538.5674" r="843.3209" gradientTransform="matrix(1.156 0 0 4.293529e-02 -241.0669 -357.8529)" gradientUnits="userSpaceOnUse">
		<stop  offset="0" style="stop-color:#C2C2C2"/>
		<stop  offset="1" style="stop-color:#3F3F3F;stop-opacity:0"/>
	</radialGradient>
	<ellipse class="st79" cx="957.1" cy="309.3" rx="975.1" ry="36.2"/>
	
		<radialGradient id="SVGID_90_" cx="1036.4766" cy="14988.9033" r="843.3207" gradientTransform="matrix(1.156 0 0 4.293529e-02 -241.0669 -357.8529)" gradientUnits="userSpaceOnUse">
		<stop  offset="0" style="stop-color:#C2C2C2"/>
		<stop  offset="1" style="stop-color:#3F3F3F;stop-opacity:0"/>
	</radialGradient>
	<ellipse class="st80" cx="957.1" cy="285.7" rx="975.1" ry="36.2"/>
	
		<radialGradient id="SVGID_91_" cx="840.1298" cy="18048.168" r="843.4678" gradientTransform="matrix(0.834 0 0 2.228994e-02 256.4317 -141.2374)" gradientUnits="userSpaceOnUse">
		<stop  offset="0" style="stop-color:#C2C2C2"/>
		<stop  offset="1" style="stop-color:#3F3F3F;stop-opacity:0"/>
	</radialGradient>
	<ellipse class="st81" cx="957.1" cy="261.1" rx="703.5" ry="18.8"/>
	
		<radialGradient id="SVGID_92_" cx="913.8461" cy="20605.1074" r="992.5459" gradientTransform="matrix(0.9314 0 0 1.431505e-02 105.9437 -57.5632)" gradientUnits="userSpaceOnUse">
		<stop  offset="0" style="stop-color:#C2C2C2"/>
		<stop  offset="1" style="stop-color:#3F3F3F;stop-opacity:0"/>
	</radialGradient>
	<ellipse class="st82" cx="957.1" cy="237.4" rx="925" ry="14.2"/>
	
		<radialGradient id="SVGID_93_" cx="647.1965" cy="18949.5078" r="843.187" gradientTransform="matrix(0.6548 0 0 1.431505e-02 533.3157 -57.5632)" gradientUnits="userSpaceOnUse">
		<stop  offset="0" style="stop-color:#C2C2C2"/>
		<stop  offset="1" style="stop-color:#3F3F3F;stop-opacity:0"/>
	</radialGradient>
	<ellipse class="st83" cx="957.1" cy="213.7" rx="552.3" ry="12.1"/>
	
		<radialGradient id="SVGID_94_" cx="647.1965" cy="17293.9082" r="844.3646" gradientTransform="matrix(0.6548 0 0 1.431505e-02 533.3157 -57.5632)" gradientUnits="userSpaceOnUse">
		<stop  offset="0" style="stop-color:#C2C2C2"/>
		<stop  offset="1" style="stop-color:#3F3F3F;stop-opacity:0"/>
	</radialGradient>
	<ellipse class="st84" cx="957.1" cy="190" rx="552.3" ry="12.1"/>
	
		<radialGradient id="SVGID_95_" cx="647.1965" cy="15607.6113" r="557.3433" gradientTransform="matrix(0.6548 0 0 1.431505e-02 533.3157 -57.5632)" gradientUnits="userSpaceOnUse">
		<stop  offset="0" style="stop-color:#C2C2C2"/>
		<stop  offset="1" style="stop-color:#3F3F3F;stop-opacity:0"/>
	</radialGradient>
	<ellipse class="st85" cx="957.1" cy="165.9" rx="365" ry="8"/>
	
		<radialGradient id="SVGID_96_" cx="647.1965" cy="13920.8525" r="386.4443" gradientTransform="matrix(0.6548 0 0 1.431505e-02 533.3157 -57.5632)" gradientUnits="userSpaceOnUse">
		<stop  offset="0" style="stop-color:#C2C2C2"/>
		<stop  offset="1" style="stop-color:#3F3F3F;stop-opacity:0"/>
	</radialGradient>
	<ellipse class="st86" cx="957.1" cy="141.7" rx="253.1" ry="5.5"/>
</g>
</svg>
